M48
;Layer_Color=6321
;FILE_FORMAT=4:4
METRIC,LZ
;TYPE=PLATED
T1F00S00C0.5500
T2F00S00C0.6350
T3F00S00C0.7000
T4F00S00C0.7112
T5F00S00C0.8500
T6F00S00C0.8890
T7F00S00C0.9000
T8F00S00C1.0160
T9F00S00C1.0500
;TYPE=NON_PLATED
T10F00S00C0.8000
%
T01
X0066425Y0118775
X0074175
Y0119425
X0066425
T02
X0066425Y01191
X0074175
T03
X00375Y002822
Y003076
Y00333
Y003584
Y003838
X004512
Y003584
Y00333
Y003076
Y002822
Y004092
Y004346
Y0046
X00375
Y004346
Y004092
T04
X00269494Y0028829
X00538861Y00392938
X0079629Y0033401
X00801878Y00293116
X00921004Y00334897
X01029482Y00342646
X01115822Y00327152
X01019Y00499
X00992124Y00521462
X00878332Y00494665
X00851964Y00496824
X00834644Y00507492
X00865124Y004699
X0086614Y00780034
X0084455Y00789269
X01065022Y00722376
X00779526Y00780034
X00661416Y0078613
X00661162Y00760603
X00633476Y00758444
X00640842Y00736346
X00604393Y00762
X00576326Y00736346
X00601218Y00706374
X00602742Y00606576
X00672338Y00617728
X00710184Y00635497
X00690626Y00678942
X00479806Y0066802
X00486918Y00626364
X0047625Y0061595
X00506222Y00615696
X00406146Y00625348
X00424434Y00654558
X00445516Y00736092
X00455676Y00750316
X005454Y0077112
X00567206Y00789916
X00366522Y00779828
X00345948Y00684748
X00351536Y00527812
X0037846Y00851662
X00366649Y00953897
X00345948Y00989965
X00337312Y01025906
X0036195Y01042416
X00387652Y01013968
X00385096Y01147
X0028263Y00948
X00404368Y00952754
X00400812Y00938276
X0040513Y00976376
X00400177Y01003554
X00401193Y01022858
X00462026Y01026922
X00505206Y01039876
X00518922Y01056005
X00509778Y01075182
X00496086Y01095
X0045085Y01135126
X00453136Y0116713
X00401066Y01090168
X00591058Y01093216
X00604472Y01106424
X00615444Y01120135
X00685038Y01098804
X00703775Y01098364
X00767842Y01055878
X00766278Y00999086
X00782574Y01011428
X00736322Y01020596
X00726694Y00994664
X00727202Y00968514
X00662432Y0094107
X0064262Y01003935
X00618236Y01003554
X00606806Y00984758
X00583716Y01034796
X00578612Y01059434
X0051943Y01000125
X00503682Y00998728
X00531368Y0097917
X00510546Y00954834
X00518774Y00913
X00587502Y0090678
X00581311Y00887
X00584454Y00866648
X00600202Y00877824
X00585149Y00835
X0058966Y00816385
X00569976Y00815086
X00779526Y00812292
X00788126Y00833882
X00772668Y01150366
X0079629Y0101854
X00805434Y00980059
X00835533Y0098044
X0086598Y00953803
X00907542Y00959358
X00973225Y00956794
X00980059Y00973074
X009638Y009885
X01025117Y009631
X01083056Y00941578
X0106622Y0111252
X0103632Y0108262
X0085598Y008968
X00804418Y00881888
X00902622Y01233678
X0101727Y01220724
X0064135Y0121285
X005646Y01243838
X0054864Y01239012
X00376174Y01195324
X00263652Y01243584
T05
X0066575Y0115025
Y01153
X0074025Y0115575
Y0115025
T06
X0066575Y0115575
X0074025Y01153
T07
X005109Y002938
Y003192
Y003446
Y0037
Y003954
X005871
Y0037
Y003446
Y003192
Y002938
X008209Y007698
X008971
X010079Y007638
Y007892
X010841
Y007638
X005871Y004462
Y004208
X005109
Y004462
X008209Y007952
Y008206
Y00846
Y008714
Y008968
Y009222
X008971
Y008968
Y008714
Y00846
Y008206
Y007952
X010079Y008146
Y0084
Y008654
Y008908
Y009162
X010841
Y008908
Y008654
Y0084
Y008146
X010831Y010278
Y010532
Y010786
Y01104
Y011294
Y011548
Y011802
X010069
Y011548
Y011294
Y01104
Y010786
Y010532
Y010278
X008981Y010288
Y010542
Y010796
Y01105
Y011304
Y011558
Y011812
X008219
Y011558
Y011304
Y01105
Y010796
Y010542
Y010288
T08
X00283Y006218
Y006472
Y006726
Y00698
Y007234
Y007488
Y007742
X003084
Y007488
Y007234
Y00698
Y006726
Y006472
Y006218
Y007996
X00283
Y00825
Y008504
X003084
Y00825
Y009774
X00283
Y010028
Y010282
Y010536
Y01079
Y011044
Y011298
Y011552
Y011806
X003084
Y011552
Y011298
Y011044
Y01079
Y010536
Y010282
Y010028
Y01206
X00283
T09
X00288Y003291
Y003545
Y003799
X008941Y00286
X009195
X009449
X009703
X009957
X010211
X010465
X010719
X01211Y003901
Y004155
Y004409
Y004663
Y004917
Y005171
Y005425
Y005679
X01205Y006871
Y007125
Y007379
Y007633
Y007887
X00288Y005069
Y004815
Y004561
Y004307
Y004053
X01205Y008141
Y008395
Y008649
X01202Y009631
Y009885
Y010139
Y010393
Y010647
Y010901
Y011155
Y011409
T10
X00678Y011635
X007284
M30
