G04 Layer_Color=12697792*
%FSLAX44Y44*%
%MOMM*%
G71*
G01*
G75*
%ADD27C,0.7620*%
%ADD28C,1.0414*%
%ADD29C,1.0000*%
%ADD30C,0.8382*%
%ADD31C,1.5000*%
%ADD32R,1.5000X1.5000*%
%ADD33C,1.3000*%
%ADD34R,1.3000X1.3000*%
%ADD35P,1.9245X8X22.5*%
%ADD36C,1.7780*%
%ADD37O,1.5500X2.2860*%
%ADD38R,1.5500X2.2860*%
%ADD39O,2.2860X1.5500*%
%ADD40R,2.2860X1.5500*%
D27*
X741750Y1194250D02*
D03*
Y1187750D02*
D03*
X664250D02*
D03*
Y1194250D02*
D03*
D28*
X665750Y1150250D02*
D03*
Y1155750D02*
D03*
X740250Y1153000D02*
D03*
Y1150250D02*
D03*
D29*
X665750Y1153000D02*
D03*
X740250Y1155750D02*
D03*
D30*
X741750Y1191000D02*
D03*
X664250D02*
D03*
D31*
X587100Y293800D02*
D03*
Y319200D02*
D03*
Y344600D02*
D03*
Y370000D02*
D03*
Y395400D02*
D03*
Y420800D02*
D03*
Y446200D02*
D03*
X510900Y293800D02*
D03*
Y319200D02*
D03*
Y344600D02*
D03*
Y370000D02*
D03*
Y395400D02*
D03*
Y420800D02*
D03*
X897100Y769800D02*
D03*
Y795200D02*
D03*
Y820600D02*
D03*
Y846000D02*
D03*
Y871400D02*
D03*
Y896800D02*
D03*
Y922200D02*
D03*
X820900Y769800D02*
D03*
Y795200D02*
D03*
Y820600D02*
D03*
Y846000D02*
D03*
Y871400D02*
D03*
Y896800D02*
D03*
X1084100Y763800D02*
D03*
Y789200D02*
D03*
Y814600D02*
D03*
Y840000D02*
D03*
Y865400D02*
D03*
Y890800D02*
D03*
Y916200D02*
D03*
X1007900Y763800D02*
D03*
Y789200D02*
D03*
Y814600D02*
D03*
Y840000D02*
D03*
Y865400D02*
D03*
Y890800D02*
D03*
X898100Y1028800D02*
D03*
Y1054200D02*
D03*
Y1079600D02*
D03*
Y1105000D02*
D03*
Y1130400D02*
D03*
Y1155800D02*
D03*
Y1181200D02*
D03*
X821900Y1028800D02*
D03*
Y1054200D02*
D03*
Y1079600D02*
D03*
Y1105000D02*
D03*
Y1130400D02*
D03*
Y1155800D02*
D03*
X1083100Y1027800D02*
D03*
Y1053200D02*
D03*
Y1078600D02*
D03*
Y1104000D02*
D03*
Y1129400D02*
D03*
Y1154800D02*
D03*
Y1180200D02*
D03*
X1006900Y1027800D02*
D03*
Y1053200D02*
D03*
Y1078600D02*
D03*
Y1104000D02*
D03*
Y1129400D02*
D03*
Y1154800D02*
D03*
D32*
X510900Y446200D02*
D03*
X820900Y922200D02*
D03*
X1007900Y916200D02*
D03*
X821900Y1181200D02*
D03*
X1006900Y1180200D02*
D03*
D33*
X451200Y282200D02*
D03*
Y307600D02*
D03*
Y333000D02*
D03*
Y358400D02*
D03*
Y383800D02*
D03*
Y409200D02*
D03*
Y434600D02*
D03*
Y460000D02*
D03*
X375000Y282200D02*
D03*
Y307600D02*
D03*
Y333000D02*
D03*
Y358400D02*
D03*
Y383800D02*
D03*
Y409200D02*
D03*
Y434600D02*
D03*
D34*
Y460000D02*
D03*
D35*
X283000Y1206000D02*
D03*
Y850400D02*
D03*
D36*
Y1180600D02*
D03*
Y1155200D02*
D03*
Y1129800D02*
D03*
Y1104400D02*
D03*
Y1079000D02*
D03*
Y1053600D02*
D03*
Y1028200D02*
D03*
Y1002800D02*
D03*
Y977400D02*
D03*
X308400Y1206000D02*
D03*
Y1180600D02*
D03*
Y1155200D02*
D03*
Y1129800D02*
D03*
Y1104400D02*
D03*
Y1079000D02*
D03*
Y1053600D02*
D03*
Y1028200D02*
D03*
Y1002800D02*
D03*
Y977400D02*
D03*
X283000Y825000D02*
D03*
Y799600D02*
D03*
Y774200D02*
D03*
Y748800D02*
D03*
Y723400D02*
D03*
Y698000D02*
D03*
Y672600D02*
D03*
Y647200D02*
D03*
Y621800D02*
D03*
X308400Y850400D02*
D03*
Y825000D02*
D03*
Y799600D02*
D03*
Y774200D02*
D03*
Y748800D02*
D03*
Y723400D02*
D03*
Y698000D02*
D03*
Y672600D02*
D03*
Y647200D02*
D03*
Y621800D02*
D03*
D37*
X894100Y286000D02*
D03*
X919500D02*
D03*
X944900D02*
D03*
X970300D02*
D03*
X995700D02*
D03*
X1021100D02*
D03*
X1046500D02*
D03*
D38*
X1071900D02*
D03*
D39*
X1202000Y1140900D02*
D03*
Y1115500D02*
D03*
Y1090100D02*
D03*
Y1064700D02*
D03*
Y1039300D02*
D03*
Y1013900D02*
D03*
Y988500D02*
D03*
X1211000Y567900D02*
D03*
Y542500D02*
D03*
Y517100D02*
D03*
Y491700D02*
D03*
Y466300D02*
D03*
Y440900D02*
D03*
Y415500D02*
D03*
X288000Y329100D02*
D03*
Y354500D02*
D03*
Y379900D02*
D03*
Y405300D02*
D03*
Y430700D02*
D03*
Y456100D02*
D03*
Y481500D02*
D03*
X1205000Y864900D02*
D03*
Y839500D02*
D03*
Y814100D02*
D03*
Y788700D02*
D03*
Y763300D02*
D03*
Y737900D02*
D03*
Y712500D02*
D03*
D40*
X1202000Y963100D02*
D03*
X1211000Y390100D02*
D03*
X288000Y506900D02*
D03*
X1205000Y687100D02*
D03*
M02*
