G04 Layer_Physical_Order=1*
G04 Layer_Color=25308*
%FSLAX44Y44*%
%MOMM*%
G71*
G01*
G75*
G04:AMPARAMS|DCode=10|XSize=2.54mm|YSize=2.286mm|CornerRadius=0.9144mm|HoleSize=0mm|Usage=FLASHONLY|Rotation=270.000|XOffset=0mm|YOffset=0mm|HoleType=Round|Shape=RoundedRectangle|*
%AMROUNDEDRECTD10*
21,1,2.5400,0.4572,0,0,270.0*
21,1,0.7112,2.2860,0,0,270.0*
1,1,1.8288,-0.2286,-0.3556*
1,1,1.8288,-0.2286,0.3556*
1,1,1.8288,0.2286,0.3556*
1,1,1.8288,0.2286,-0.3556*
%
%ADD10ROUNDEDRECTD10*%
G04:AMPARAMS|DCode=11|XSize=0.45mm|YSize=1.5mm|CornerRadius=0.0225mm|HoleSize=0mm|Usage=FLASHONLY|Rotation=180.000|XOffset=0mm|YOffset=0mm|HoleType=Round|Shape=RoundedRectangle|*
%AMROUNDEDRECTD11*
21,1,0.4500,1.4550,0,0,180.0*
21,1,0.4050,1.5000,0,0,180.0*
1,1,0.0450,-0.2025,0.7275*
1,1,0.0450,0.2025,0.7275*
1,1,0.0450,0.2025,-0.7275*
1,1,0.0450,-0.2025,-0.7275*
%
%ADD11ROUNDEDRECTD11*%
G04:AMPARAMS|DCode=12|XSize=6.35mm|YSize=4.064mm|CornerRadius=0.2032mm|HoleSize=0mm|Usage=FLASHONLY|Rotation=180.000|XOffset=0mm|YOffset=0mm|HoleType=Round|Shape=RoundedRectangle|*
%AMROUNDEDRECTD12*
21,1,6.3500,3.6576,0,0,180.0*
21,1,5.9436,4.0640,0,0,180.0*
1,1,0.4064,-2.9718,1.8288*
1,1,0.4064,2.9718,1.8288*
1,1,0.4064,2.9718,-1.8288*
1,1,0.4064,-2.9718,-1.8288*
%
%ADD12ROUNDEDRECTD12*%
%ADD13R,1.2500X1.3500*%
%ADD14R,1.2500X1.4000*%
%ADD15R,2.4000X1.0000*%
%ADD16R,2.4000X3.3000*%
%ADD17R,1.3500X1.4500*%
%ADD18R,4.5000X1.8000*%
%ADD19R,1.3970X1.3970*%
%ADD20R,2.1000X0.9000*%
%ADD21R,2.1000X3.2000*%
%ADD22R,1.4000X2.1000*%
%ADD23O,1.0000X0.2500*%
%ADD24O,0.2500X1.0000*%
%ADD25R,1.4500X1.4500*%
%ADD26C,0.2540*%
%ADD27C,0.7620*%
%ADD28C,1.0414*%
%ADD29C,1.0000*%
%ADD30C,0.8382*%
%ADD31C,1.5000*%
%ADD32R,1.5000X1.5000*%
%ADD33C,1.3000*%
%ADD34R,1.3000X1.3000*%
%ADD35P,1.9245X8X22.5*%
%ADD36C,1.7780*%
%ADD37O,1.5500X2.2860*%
%ADD38R,1.5500X2.2860*%
%ADD39O,2.2860X1.5500*%
%ADD40R,2.2860X1.5500*%
%ADD41C,1.2700*%
D10*
X662360Y1153000D02*
D03*
X743640D02*
D03*
Y1191000D02*
D03*
X662360D02*
D03*
D11*
X716000Y1153000D02*
D03*
X709500D02*
D03*
X703000D02*
D03*
X696500D02*
D03*
X690000D02*
D03*
D12*
X703000Y1190890D02*
D03*
D13*
X545400Y1043000D02*
D03*
X545401Y1069000D02*
D03*
X439400Y540000D02*
D03*
X440400Y566000D02*
D03*
X418400Y1043000D02*
D03*
Y1069000D02*
D03*
X681400Y902000D02*
D03*
Y928000D02*
D03*
X545400Y1095000D02*
D03*
X545401Y1121000D02*
D03*
X437400Y593000D02*
D03*
X441400Y615000D02*
D03*
X418400Y1095000D02*
D03*
X680400Y560000D02*
D03*
Y586000D02*
D03*
X418400Y1121000D02*
D03*
X681400Y954000D02*
D03*
Y980000D02*
D03*
X545401Y1147000D02*
D03*
Y1173000D02*
D03*
X440400Y669000D02*
D03*
X438400Y641000D02*
D03*
X418400Y1147000D02*
D03*
X681400Y1006000D02*
D03*
Y1032000D02*
D03*
X545401Y1199000D02*
D03*
Y1225000D02*
D03*
X438400Y695000D02*
D03*
X436400Y722000D02*
D03*
X418400Y1199000D02*
D03*
Y1225000D02*
D03*
X681400Y1058000D02*
D03*
Y1084000D02*
D03*
Y850000D02*
D03*
Y876000D02*
D03*
X418400Y991000D02*
D03*
Y1017000D02*
D03*
X557400Y698000D02*
D03*
Y722000D02*
D03*
X545400Y991000D02*
D03*
Y1017000D02*
D03*
X681400Y798000D02*
D03*
Y824000D02*
D03*
X418400Y939000D02*
D03*
Y965000D02*
D03*
X558400Y642000D02*
D03*
X557400Y670000D02*
D03*
X545400Y939000D02*
D03*
Y965000D02*
D03*
X681400Y746000D02*
D03*
Y772000D02*
D03*
X418400Y887000D02*
D03*
Y913000D02*
D03*
X559400Y589000D02*
D03*
X558400Y615000D02*
D03*
X545400Y887000D02*
D03*
X681400Y694000D02*
D03*
X545400Y913000D02*
D03*
X681400Y720000D02*
D03*
X418400Y835000D02*
D03*
Y861000D02*
D03*
X557401Y537000D02*
D03*
X556400Y564000D02*
D03*
X545400Y835000D02*
D03*
Y861000D02*
D03*
X418400Y1173000D02*
D03*
X673397Y441999D02*
D03*
X732397D02*
D03*
D14*
X564600Y1043000D02*
D03*
X564600Y1069000D02*
D03*
X458600Y540000D02*
D03*
X459600Y566000D02*
D03*
X437600Y1043000D02*
D03*
Y1069000D02*
D03*
X700600Y902000D02*
D03*
Y928000D02*
D03*
X564600Y1095000D02*
D03*
X564600Y1121000D02*
D03*
X456600Y593000D02*
D03*
X460600Y615000D02*
D03*
X437600Y1095000D02*
D03*
X699600Y560000D02*
D03*
Y586000D02*
D03*
X437600Y1121000D02*
D03*
X700600Y954000D02*
D03*
Y980000D02*
D03*
X564600Y1147000D02*
D03*
Y1173000D02*
D03*
X459600Y669000D02*
D03*
X457600Y641000D02*
D03*
X437600Y1147000D02*
D03*
X700600Y1006000D02*
D03*
Y1032000D02*
D03*
X564600Y1199000D02*
D03*
Y1225000D02*
D03*
X457600Y695000D02*
D03*
X455600Y722000D02*
D03*
X437600Y1199000D02*
D03*
Y1225000D02*
D03*
X700600Y1058000D02*
D03*
Y1084000D02*
D03*
Y850000D02*
D03*
Y876000D02*
D03*
X437600Y991000D02*
D03*
Y1017000D02*
D03*
X576600Y698000D02*
D03*
Y722000D02*
D03*
X564600Y991000D02*
D03*
Y1017000D02*
D03*
X700600Y798000D02*
D03*
Y824000D02*
D03*
X437600Y939000D02*
D03*
Y965000D02*
D03*
X577600Y642000D02*
D03*
X576600Y670000D02*
D03*
X564600Y939000D02*
D03*
Y965000D02*
D03*
X700600Y746000D02*
D03*
Y772000D02*
D03*
X437600Y887000D02*
D03*
Y913000D02*
D03*
X578600Y589000D02*
D03*
X577600Y615000D02*
D03*
X564600Y887000D02*
D03*
X700600Y694000D02*
D03*
X564600Y913000D02*
D03*
X700600Y720000D02*
D03*
X437600Y835000D02*
D03*
Y861000D02*
D03*
X576600Y537000D02*
D03*
X575600Y564000D02*
D03*
X564600Y835000D02*
D03*
Y861000D02*
D03*
X437600Y1173000D02*
D03*
X692597Y441999D02*
D03*
X751597D02*
D03*
D15*
X1104658Y405007D02*
D03*
Y382006D02*
D03*
Y359007D02*
D03*
D16*
X1162658Y382006D02*
D03*
D17*
X1073250Y593000D02*
D03*
X1056750D02*
D03*
X1072250Y646000D02*
D03*
X1055750D02*
D03*
X1145907Y301006D02*
D03*
X1129407D02*
D03*
X1144908Y448007D02*
D03*
X1128407D02*
D03*
X1039250Y393000D02*
D03*
X1022750D02*
D03*
X992250Y558000D02*
D03*
X975750D02*
D03*
X981250Y387000D02*
D03*
X964750D02*
D03*
X998250Y610000D02*
D03*
X981750D02*
D03*
X812250Y518000D02*
D03*
X795750D02*
D03*
X870250Y686000D02*
D03*
X853750D02*
D03*
D18*
X1069000Y491500D02*
D03*
Y458500D02*
D03*
X908000Y492500D02*
D03*
Y459500D02*
D03*
D19*
X929510Y543000D02*
D03*
X896490D02*
D03*
X1087510Y545000D02*
D03*
X1054490D02*
D03*
D20*
X791500Y631000D02*
D03*
Y608000D02*
D03*
Y585000D02*
D03*
D21*
X848500Y608000D02*
D03*
D22*
X634500Y302938D02*
D03*
Y369062D02*
D03*
X679500Y302938D02*
D03*
Y369062D02*
D03*
X737500Y300938D02*
D03*
Y367062D02*
D03*
X782500Y300938D02*
D03*
Y367062D02*
D03*
D23*
X979000Y480500D02*
D03*
Y475500D02*
D03*
Y470500D02*
D03*
Y465500D02*
D03*
X1009000D02*
D03*
Y470500D02*
D03*
Y475500D02*
D03*
Y480500D02*
D03*
D24*
X986500Y458000D02*
D03*
X991500D02*
D03*
X996500D02*
D03*
X1001500D02*
D03*
Y488000D02*
D03*
X996500D02*
D03*
X991500D02*
D03*
X986500D02*
D03*
D25*
X994000Y473000D02*
D03*
D26*
X283000Y850400D02*
Y948000D01*
X986917Y282194D02*
X995700D01*
X684595Y746000D02*
Y759567D01*
X755650Y300736D02*
X782500D01*
X679768Y330771D02*
X692597Y343601D01*
X679500Y330504D02*
X679768Y330771D01*
X418400Y669556D02*
Y784225D01*
X295656Y993775D02*
Y1022350D01*
X455676Y722000D02*
Y750316D01*
X680400Y585746D02*
X689610D01*
Y550672D02*
Y575014D01*
X595503Y876554D02*
X598932Y873125D01*
X510546Y955294D02*
X564346D01*
X531368Y981456D02*
X564346D01*
X502721D02*
X531368D01*
X519430Y1003440D02*
X560421D01*
X781812Y950722D02*
X782574Y951484D01*
X745998Y914908D02*
X781812Y950722D01*
Y1081024D01*
X492131Y1054076D02*
X518922D01*
Y1056005D01*
Y1037844D02*
Y1054076D01*
X736322Y962025D02*
X766278Y991981D01*
X573278Y1110996D02*
X586893D01*
X545654D02*
X573278D01*
X564600Y1243838D02*
Y1244600D01*
X743802Y1058000D02*
X749500D01*
X700600D02*
X743802D01*
X1087510Y491500D02*
Y545000D01*
X1068832Y458500D02*
X1069000D01*
X1035296D02*
X1068832D01*
Y403860D02*
Y458500D01*
X1021100Y298450D02*
Y320568D01*
X986500Y427736D02*
Y450850D01*
X1001500Y486410D02*
Y487000D01*
Y484124D02*
Y486410D01*
X991500Y480314D02*
Y481838D01*
X906272Y492500D02*
Y552704D01*
X986178Y480500D02*
X986500Y480822D01*
X812250Y517906D02*
X824484D01*
X906272Y492500D02*
X908000D01*
X880497D02*
X906272D01*
X1207262Y378460D02*
Y390100D01*
X1071900Y290322D02*
X1145653D01*
X992003Y480060D02*
X1000506D01*
X991754D02*
X992003D01*
X991500Y481838D02*
X992003Y480060D01*
X994000Y473000D01*
X812250Y285750D02*
Y517906D01*
X1071900Y290322D02*
Y383814D01*
Y286000D02*
Y290322D01*
X741750Y1191000D02*
Y1194250D01*
Y1191000D02*
X743640D01*
X742476Y1188614D02*
X743640Y1187450D01*
X741750Y1189340D02*
X742476Y1188614D01*
X740200Y1190890D02*
X741750Y1189340D01*
Y1191000D01*
X741741Y1191000D02*
X741750Y1191000D01*
X703000Y1190890D02*
X741741Y1191000D01*
X664250Y1190890D02*
X703000D01*
X743640Y1153000D02*
Y1187450D01*
X740250Y1150250D02*
Y1153000D01*
Y1155750D01*
X664250Y1191000D02*
Y1194250D01*
Y1190890D02*
Y1191000D01*
Y1187750D02*
Y1190890D01*
X665750Y1153000D02*
Y1155750D01*
X662360Y1153000D02*
X665750D01*
Y1150250D02*
Y1153000D01*
Y1143586D02*
Y1150250D01*
X857250Y631000D02*
X866775D01*
X791500D02*
X857250D01*
X964184Y475500D02*
X980000D01*
X870724D02*
X964184D01*
X1128407Y396875D02*
Y438404D01*
X791500Y608000D02*
X803986D01*
X727710Y334010D02*
Y441999D01*
X563118Y537000D02*
Y548132D01*
X1129407Y313567D02*
Y370199D01*
X1104658Y382006D02*
X1117600D01*
X440400Y641000D02*
Y669000D01*
X441400Y622300D02*
Y626364D01*
Y615000D02*
Y622300D01*
X556400Y550910D02*
Y554482D01*
X995700Y282194D02*
Y286000D01*
X976523Y271800D02*
X986917Y282194D01*
X960100Y271800D02*
X976523D01*
X957580Y292608D02*
X960100Y271800D01*
X949911Y300277D02*
X957580Y292608D01*
X934184Y300277D02*
X949911D01*
X834644Y399817D02*
X934184Y300277D01*
X834644Y399817D02*
Y507492D01*
X672338Y617728D02*
Y1109599D01*
X686689Y1123950D01*
X712825D01*
X716000Y1127125D01*
Y1153000D01*
X375000Y409200D02*
X384302Y418502D01*
Y450698D01*
X375000Y460000D02*
X384302Y450698D01*
X269494Y608294D02*
X283000Y621800D01*
X269494Y288290D02*
Y608294D01*
X283000Y621800D02*
X294660Y633460D01*
Y654050D01*
X287802Y660908D02*
X294660Y654050D01*
X271594Y660908D02*
X287802D01*
X267300Y665202D02*
X271594Y660908D01*
X267300Y665202D02*
Y961700D01*
X283000Y977400D01*
X699600Y586000D02*
X708406D01*
X708660Y585746D01*
Y511175D02*
Y585746D01*
X705485Y508000D02*
X708660Y511175D01*
X572700Y508000D02*
X705485D01*
X510900Y446200D02*
X572700Y508000D01*
X361950Y1037195D02*
Y1042416D01*
X336550Y1011795D02*
X361950Y1037195D01*
X336550Y542798D02*
Y1011795D01*
Y542798D02*
X351536Y527812D01*
X464510Y395400D02*
X510900D01*
X462800Y397110D02*
X464510Y395400D01*
X444500Y397110D02*
X462800D01*
X441325Y400285D02*
X444500Y397110D01*
X441325Y400285D02*
Y434975D01*
X366014Y510286D02*
X441325Y434975D01*
X336550Y510286D02*
X366014D01*
X332486Y514350D02*
X336550Y510286D01*
X332486Y514350D02*
Y1021080D01*
X337312Y1025906D01*
X710184Y635497D02*
X751597Y594084D01*
Y441999D02*
Y594084D01*
X288000Y430700D02*
X315786D01*
X352674Y393070D01*
X458338D01*
X494030Y357378D01*
X553720D01*
X576834Y334264D01*
X676275D01*
X679768Y330771D01*
X679500Y302938D02*
X679768Y330771D01*
X679500Y302938D02*
Y330504D01*
X692597Y343601D02*
Y441999D01*
X283000Y739257D02*
Y748800D01*
X271340Y730250D02*
X283000Y739257D01*
X271340Y717736D02*
Y730250D01*
Y717736D02*
X278384Y710692D01*
X289052D01*
X294894Y704850D01*
Y662667D02*
Y704850D01*
Y662667D02*
X298700Y658860D01*
X315250D01*
X320060Y654050D01*
Y434975D02*
Y654050D01*
X315786Y430700D02*
X320060Y434975D01*
X366522Y779828D02*
X414003D01*
X418400Y784225D01*
Y835000D01*
X409448Y887000D02*
X418400D01*
X409194Y887254D02*
X409448Y887000D01*
X409194Y887254D02*
Y924814D01*
X413258Y928878D01*
X427228D01*
X427482Y929132D01*
Y1000125D01*
X423545Y1004062D02*
X427482Y1000125D01*
X412496Y1004062D02*
X423545D01*
X409194Y1007364D02*
X412496Y1004062D01*
X409194Y1007364D02*
Y1014857D01*
X401193Y1022858D02*
X409194Y1014857D01*
X414971Y952754D02*
X418400Y949325D01*
X404368Y952754D02*
X414971D01*
X567206Y660884D02*
Y789916D01*
Y660884D02*
X577600Y650490D01*
Y642000D02*
Y650490D01*
X621593Y745689D02*
Y909121D01*
X620704Y744800D02*
X621593Y745689D01*
X587756Y571246D02*
X620704Y604194D01*
X575600Y571119D02*
X575727Y571246D01*
X401617Y861000D02*
X418400D01*
X388033Y874585D02*
X401617Y861000D01*
X388033Y874585D02*
Y991410D01*
X400177Y1003554D01*
X618236Y916583D02*
Y1003554D01*
Y916583D02*
X619470Y915350D01*
Y911245D02*
Y915350D01*
Y911245D02*
X621593Y909121D01*
X620704Y604194D02*
Y744800D01*
X575727Y571246D02*
X587756D01*
X575600Y564000D02*
Y571119D01*
X577600Y615000D02*
Y624586D01*
X612624Y659610D01*
Y752880D01*
X613513Y753769D01*
Y901650D01*
X592381Y922782D02*
X613513Y901650D01*
X418654Y922782D02*
X592381D01*
X418400Y922528D02*
X418654Y922782D01*
X418400Y913000D02*
Y922528D01*
X576600Y670000D02*
Y679343D01*
X589660Y692403D01*
X405130Y971750D02*
Y976376D01*
Y971750D02*
X411880Y965000D01*
X418400D01*
X418654Y1026922D02*
X462026D01*
X418400Y1017000D02*
X418654Y1026922D01*
X274063Y656137D02*
X283000Y647200D01*
X266700Y656137D02*
X274063D01*
X263260Y659577D02*
X266700Y656137D01*
X263260Y659577D02*
Y983060D01*
X283000Y1002800D01*
X418400Y1086104D02*
Y1095000D01*
X410972Y1085850D02*
X418400Y1086104D01*
X384556Y1059434D02*
X410972Y1085850D01*
X384556Y1044079D02*
Y1059434D01*
X361557Y1021080D02*
X384556Y1044079D01*
X361557Y968363D02*
Y1021080D01*
X357402Y964208D02*
X361557Y968363D01*
X357402Y768350D02*
Y964208D01*
Y768350D02*
X406146Y719606D01*
Y625348D02*
Y719606D01*
X476250Y596175D02*
Y615950D01*
X473075Y593000D02*
X476250Y596175D01*
X456600Y593000D02*
X473075D01*
X418400Y1095000D02*
X427228D01*
X427482Y1095254D01*
Y1234440D01*
X427228Y1234694D02*
X427482Y1234440D01*
X289941Y1234694D02*
X427228D01*
X271272Y1216025D02*
X289941Y1234694D01*
X271272Y1039928D02*
Y1216025D01*
Y1039928D02*
X283000Y1028200D01*
X385096Y1147000D02*
X418400D01*
X345948Y684748D02*
Y989965D01*
X457600Y695000D02*
X464566D01*
X464820Y695254D01*
Y787400D01*
X427482Y824738D02*
X464820Y787400D01*
X427482Y824738D02*
Y844550D01*
X424180Y847852D02*
X427482Y844550D01*
X402782Y847852D02*
X424180D01*
X383993Y866641D02*
X402782Y847852D01*
X383993Y866641D02*
Y1010309D01*
X387652Y1013968D01*
X308400Y698000D02*
X328192Y717792D01*
Y1035026D01*
X405686Y1112520D01*
X418146D01*
X418400Y1121000D01*
X454025Y615000D02*
X460600D01*
X450596Y611571D02*
X454025Y615000D01*
X450596Y605282D02*
Y611571D01*
X447548Y602234D02*
X450596Y605282D01*
X447548Y577850D02*
Y602234D01*
Y577850D02*
X450342Y575056D01*
Y556260D02*
Y575056D01*
Y556260D02*
X450596Y556006D01*
X497586D01*
X506222Y564642D01*
Y615696D01*
X283000Y723400D02*
X295656Y736056D01*
Y877824D01*
X320060Y902228D01*
Y983214D01*
X313182Y990092D02*
X320060Y983214D01*
X299339Y990092D02*
X313182D01*
X295656Y993775D02*
X299339Y990092D01*
X283000Y1079000D02*
X295656Y1066344D01*
Y1022350D02*
Y1066344D01*
X289052Y1016508D02*
X295656Y1022350D01*
X275844Y1016508D02*
X289052D01*
X263652Y1028700D02*
X275844Y1016508D01*
X263652Y1028700D02*
Y1243584D01*
X376174Y1195324D02*
X398498Y1173000D01*
X418400D01*
X308400Y1079000D02*
X324100Y1063300D01*
Y739100D02*
Y1063300D01*
X308400Y723400D02*
X324100Y739100D01*
X455600Y722000D02*
X455676D01*
X500380Y431320D02*
X510900Y420800D01*
X500380Y431320D02*
Y508127D01*
X504825Y512572D01*
X651510D01*
X689610Y550672D01*
X680400Y585746D02*
Y586000D01*
X689610Y575014D02*
Y585746D01*
Y575014D02*
X699600Y563372D01*
Y560000D02*
Y563372D01*
X578806Y861000D02*
X584454Y866648D01*
X564600Y861000D02*
X578806D01*
X545400Y771120D02*
Y835000D01*
X691388Y711962D02*
Y833628D01*
Y711962D02*
X700600Y702750D01*
X545400Y868107D02*
X549275Y871982D01*
X573532D01*
X578104Y876554D01*
X595503D02*
X600202Y877824D01*
X700600Y720000D02*
X709422D01*
X709676Y719746D01*
Y684276D02*
Y719746D01*
X704342Y678942D02*
X709676Y684276D01*
X690626Y678942D02*
X704342D01*
X595122Y712470D02*
X601218Y706374D01*
X595122Y712470D02*
Y803402D01*
X598932Y807212D01*
Y873125D01*
X578104Y876554D02*
X595503D01*
X545400Y861000D02*
Y868107D01*
X564600Y887000D02*
X581311D01*
X865980Y953803D02*
X877062Y942721D01*
Y789838D02*
Y942721D01*
Y789838D02*
X897100Y769800D01*
X564600Y913000D02*
X572516D01*
X576456Y916940D01*
X590550D01*
X606044Y901446D01*
Y886206D02*
Y901446D01*
Y886206D02*
X609322Y882928D01*
Y766929D02*
Y882928D01*
X604393Y762000D02*
X609322Y766929D01*
X1065022Y722376D02*
X1084100Y741454D01*
Y763800D01*
X545400Y887000D02*
Y894015D01*
X550680Y899295D01*
X580017D01*
X587502Y906780D01*
X907542Y831042D02*
Y959358D01*
X897100Y820600D02*
X907542Y831042D01*
X700600Y746000D02*
X745492D01*
X779526Y780034D01*
X844550Y789269D02*
Y812038D01*
X825500Y831088D02*
X844550Y812038D01*
X814567Y831088D02*
X825500D01*
X810630Y835025D02*
X814567Y831088D01*
X810630Y835025D02*
Y850254D01*
X817647Y857271D01*
X823235D01*
X831170Y865206D01*
Y877996D01*
X827278Y881888D02*
X831170Y877996D01*
X804418Y881888D02*
X827278D01*
X518774Y913000D02*
X545400D01*
X629460Y762460D02*
X633476Y758444D01*
X629460Y762460D02*
Y1009650D01*
X626285Y1012825D02*
X629460Y1009650D01*
X594487Y1012825D02*
X626285D01*
X591312Y1009650D02*
X594487Y1012825D01*
X591312Y939254D02*
Y1009650D01*
X564600Y939000D02*
X591312Y939254D01*
X437600Y939000D02*
X526580D01*
X536194Y929386D01*
X564346D01*
X564600Y939000D01*
Y955548D02*
Y965000D01*
X564346Y955294D02*
X564600Y955548D01*
X500380Y965000D02*
X510546Y955294D01*
X973225Y798475D02*
X1007900Y763800D01*
X973225Y798475D02*
Y956794D01*
X510546Y954834D02*
Y955294D01*
X437600Y965000D02*
X500380D01*
X661162Y730250D02*
Y760603D01*
X658138Y727226D02*
X661162Y730250D01*
X635000Y727226D02*
X658138D01*
X631722Y730504D02*
X635000Y727226D01*
X631722Y730504D02*
Y741069D01*
X642620Y751967D01*
Y990600D01*
X633500Y999720D02*
X642620Y990600D01*
X633500Y999720D02*
Y1016762D01*
X633246Y1017016D02*
X633500Y1016762D01*
X588518Y1017016D02*
X633246D01*
X580136Y1008634D02*
X588518Y1017016D01*
X580136Y955421D02*
Y1008634D01*
X574675Y949960D02*
X580136Y955421D01*
X549210Y949960D02*
X574675D01*
X545400Y946150D02*
X549210Y949960D01*
X545400Y939000D02*
Y946150D01*
X700600Y798000D02*
X798301D01*
X820900Y820600D01*
X437600Y991000D02*
X493177D01*
X531368Y979170D02*
Y981456D01*
X805434Y937666D02*
Y980059D01*
Y937666D02*
X820900Y922200D01*
X564600Y1007618D02*
Y1017000D01*
X560421Y1003440D02*
X564600Y1007618D01*
X437600Y1017000D02*
X502555D01*
X519430Y1003440D01*
Y1000125D02*
Y1003440D01*
X980059Y973074D02*
X983234Y969899D01*
Y940866D02*
Y969899D01*
Y940866D02*
X1007900Y916200D01*
Y865400D02*
X1018286Y875786D01*
Y936625D01*
X991362Y963549D02*
X1018286Y936625D01*
X991362Y963549D02*
Y986028D01*
X934974Y1042416D02*
X991362Y986028D01*
X934974Y1042416D02*
Y1107440D01*
X927100Y1115314D02*
X934974Y1107440D01*
X816102Y1115314D02*
X927100D01*
X781812Y1081024D02*
X816102Y1115314D01*
X691388Y876254D02*
X691642Y876000D01*
X437600Y1043000D02*
X481055D01*
X492131Y1054076D01*
X518922Y1037844D02*
X525780Y1030986D01*
X560536D01*
X564600Y1069000D02*
X583754D01*
X587732Y1065022D01*
Y1053775D02*
Y1065022D01*
X573786Y1039829D02*
X587732Y1053775D01*
X573786Y1029740D02*
Y1039829D01*
Y1029740D02*
X577850Y1025676D01*
X593090D01*
X604472Y1037058D01*
Y1106424D01*
X1066220Y1112520D02*
X1083100Y1129400D01*
X526456Y1075182D02*
X532638Y1069000D01*
X564600Y1121000D02*
X598678D01*
X610108Y1132430D01*
X632235D01*
X662432Y1102233D01*
Y941070D02*
Y1102233D01*
X1083056Y941578D02*
X1083100Y941622D01*
Y1027800D01*
X700600Y954000D02*
X728297D01*
X766278Y991981D02*
Y999086D01*
X496086Y1095000D02*
X545400D01*
X736322Y962025D02*
Y1020596D01*
X728297Y954000D02*
X736322Y962025D01*
X545401Y1111250D02*
X573278Y1110996D01*
X591058Y1093216D01*
X685038Y1098804D02*
X691388Y1092454D01*
Y993267D02*
Y1092454D01*
Y993267D02*
X695325Y989330D01*
X700346D01*
X700600Y980000D01*
X441325Y1135126D02*
X450850D01*
X437600Y1138851D02*
X441325Y1135126D01*
X437600Y1138851D02*
Y1147000D01*
X564600Y1173000D02*
X601500D01*
X641350Y1212850D01*
X1017270Y1072769D02*
Y1220724D01*
X1009142Y1064641D02*
X1017270Y1072769D01*
X1000125Y1064641D02*
X1009142D01*
X996442Y1060958D02*
X1000125Y1064641D01*
X996442Y1038258D02*
Y1060958D01*
Y1038258D02*
X1006900Y1027800D01*
X545401Y1147000D02*
Y1154047D01*
X549275Y1157922D01*
X606283D01*
X664514Y1216152D01*
X753110D01*
X772668Y1196594D01*
Y1150366D02*
Y1196594D01*
X821900Y1079600D02*
X835533Y1065967D01*
Y980440D02*
Y1065967D01*
X715232Y980484D02*
X727202Y968514D01*
X715232Y980484D02*
Y1001036D01*
X710269Y1006000D02*
X715232Y1001036D01*
X700600Y1006000D02*
X710269D01*
X700600Y1023620D02*
X726694Y997526D01*
Y994664D02*
Y997526D01*
X453136Y1167130D02*
X459006Y1173000D01*
X545401D01*
X700600Y1023620D02*
Y1032000D01*
X761040Y1242060D02*
X821900Y1181200D01*
X600160Y1242060D02*
X761040D01*
X564600Y1206500D02*
X600160Y1242060D01*
X545401Y1225000D02*
Y1235772D01*
X548640Y1239012D01*
X902622Y1233678D02*
X1006900Y1129400D01*
X1069000Y491500D02*
X1087510D01*
X1054490Y545000D02*
X1066258Y556768D01*
X1097026D01*
X1097280Y556514D01*
Y478282D02*
Y556514D01*
X1094232Y475234D02*
X1097280Y478282D01*
X992250Y521588D02*
Y558000D01*
X992124Y521462D02*
X992250Y521588D01*
X851964Y450850D02*
Y496824D01*
Y450850D02*
X855139Y447675D01*
X983325D01*
X986500Y450850D01*
Y459000D01*
X1021100Y286000D02*
Y298450D01*
X955040Y364510D02*
X1021100Y298450D01*
X955040Y364510D02*
Y396276D01*
X986500Y427736D01*
X991616Y996600D02*
X1025117Y963100D01*
X991616Y996600D02*
Y1062284D01*
X898100Y1155800D02*
X991616Y1062284D01*
X1006900Y1053200D02*
X1036320Y1082620D01*
X683608Y1153000D02*
X690000D01*
X669972Y1139364D02*
X683608Y1153000D01*
X665750Y1143586D02*
X669972Y1139364D01*
X634500Y302938D02*
X648894Y288544D01*
X725106D01*
X737500Y300938D01*
X308400Y527300D02*
Y621800D01*
X288000Y506900D02*
X308400Y527300D01*
X283000Y952000D02*
X308400Y977400D01*
X991500Y481838D02*
Y487000D01*
X981750Y586898D02*
Y610000D01*
X975750Y580898D02*
X981750Y586898D01*
X975750Y558000D02*
Y580898D01*
Y484750D02*
Y558000D01*
Y484750D02*
X980000Y480500D01*
X1022750Y361950D02*
Y393000D01*
Y349379D02*
Y361950D01*
Y349379D02*
X1029482Y342646D01*
X964750Y361950D02*
Y387000D01*
Y361950D02*
X967925Y358775D01*
X1019575D01*
X1022750Y361950D01*
X865124Y469900D02*
X870724Y475500D01*
X820900Y846000D02*
X853750Y813150D01*
Y686000D02*
Y813150D01*
Y666750D02*
Y686000D01*
X843844Y656844D02*
X853750Y666750D01*
X781050Y656844D02*
X843844D01*
X777875Y653669D02*
X781050Y656844D01*
X777875Y585381D02*
Y653669D01*
Y585381D02*
X791500Y585000D01*
X1128407Y438404D02*
Y448007D01*
X1115314Y438150D02*
X1128407Y438404D01*
X1066038Y388874D02*
X1115314Y438150D01*
X1066038Y339852D02*
Y388874D01*
X1035812Y309626D02*
X1066038Y339852D01*
X1035812Y273050D02*
Y309626D01*
X1030522Y267760D02*
X1035812Y273050D01*
X924791Y267760D02*
X1030522D01*
X919500Y273050D02*
X924791Y267760D01*
X919500Y273050D02*
Y286000D01*
X1123962Y392430D02*
X1128407Y396875D01*
X1089914Y392430D02*
X1123962D01*
X1089660Y359261D02*
X1089914Y392430D01*
X1089660Y359261D02*
X1104658Y359007D01*
X795750Y334550D02*
X796290Y334010D01*
X795750Y334550D02*
Y518000D01*
X796290Y287528D02*
X801878Y293116D01*
X752094Y287528D02*
X796290D01*
X747522Y292100D02*
X752094Y287528D01*
X747522Y292100D02*
Y314198D01*
X727710Y334010D02*
X747522Y314198D01*
X727710Y441999D02*
X732397D01*
X1117600Y382006D02*
X1129407Y370199D01*
X557401Y537000D02*
X563118D01*
Y548132D02*
X563372Y548386D01*
X585470D01*
X585724Y548132D01*
Y527812D02*
Y548132D01*
X576580Y518668D02*
X585724Y527812D01*
X500634Y518668D02*
X576580D01*
X496316Y514350D02*
X500634Y518668D01*
X496316Y412750D02*
Y514350D01*
Y412750D02*
X501142Y407924D01*
X523875D01*
X538861Y392938D01*
X921004Y334897D02*
X958089Y297812D01*
X970026D01*
X970300Y297538D01*
Y286000D02*
Y297538D01*
X438400Y641000D02*
X440400D01*
X561044Y1248156D02*
X564600Y1244600D01*
X478578Y1248156D02*
X561044D01*
X455422Y1225000D02*
X478578Y1248156D01*
X437600Y1225000D02*
X455422D01*
X418400Y939000D02*
Y949325D01*
X560536Y1030986D02*
X564600Y1035050D01*
Y1043000D01*
Y851662D02*
Y861000D01*
X564346Y851408D02*
X564600Y851662D01*
X536194Y851408D02*
X564346D01*
X526602Y861000D02*
X536194Y851408D01*
X437600Y861000D02*
X526602D01*
X418400Y1069000D02*
X426806D01*
X427482Y1068324D01*
Y1033526D02*
Y1068324D01*
X427228Y1033272D02*
X427482Y1033526D01*
X392629Y1033272D02*
X427228D01*
X378460Y1019103D02*
X392629Y1033272D01*
X378460Y851662D02*
Y1019103D01*
X576600Y529610D02*
Y537000D01*
X571500Y524510D02*
X576600Y529610D01*
X424434Y524510D02*
X571500D01*
X415266Y533678D02*
X424434Y524510D01*
X415266Y533678D02*
Y666422D01*
X418400Y669556D01*
X840141Y784860D02*
X844550Y789269D01*
X802894Y784860D02*
X840141D01*
X797306Y790448D02*
X802894Y784860D01*
X759206Y790448D02*
X797306D01*
X740758Y772000D02*
X759206Y790448D01*
X700600Y772000D02*
X740758D01*
X855980Y896800D02*
X866140Y886640D01*
Y780034D02*
Y886640D01*
X564600Y1225000D02*
Y1243838D01*
X700600Y1084000D02*
Y1095189D01*
X703775Y1098364D01*
X752648Y902000D02*
X796290Y945642D01*
X700600Y902000D02*
X752648D01*
X564600Y1059688D02*
Y1069000D01*
X564346Y1059434D02*
X564600Y1059688D01*
X530558Y1059434D02*
X564346D01*
X524867Y1065125D02*
X530558Y1059434D01*
X503452Y1065125D02*
X524867D01*
X497761Y1059434D02*
X503452Y1065125D01*
X437854Y1059434D02*
X497761D01*
X437600Y1059688D02*
X437854Y1059434D01*
X437600Y1059688D02*
Y1069000D01*
X700600Y824000D02*
X767818D01*
X779526Y812292D01*
X653288Y794258D02*
X661416Y786130D01*
X653288Y794258D02*
Y1011682D01*
X643334Y1021636D02*
X653288Y1011682D01*
X578279Y1021636D02*
X643334D01*
X575818Y1019175D02*
X578279Y1021636D01*
X575818Y979170D02*
Y1019175D01*
X571500Y974852D02*
X575818Y979170D01*
X545654Y974852D02*
X571500D01*
X545400Y974598D02*
X545654Y974852D01*
X545400Y965000D02*
Y974598D01*
X528082Y1017000D02*
X545400D01*
X505206Y1039876D02*
X528082Y1017000D01*
X782574Y951484D02*
Y1011428D01*
X695071Y914908D02*
X745998D01*
X691388Y911225D02*
X695071Y914908D01*
X691388Y876254D02*
Y911225D01*
X691642Y876000D02*
X700600D01*
X583716Y1034796D02*
X591861Y1042940D01*
Y1077814D01*
X574675Y1095000D02*
X591861Y1077814D01*
X564600Y1095000D02*
X574675D01*
X700600Y928000D02*
X721371D01*
X777494Y984123D01*
Y1002284D01*
X767842Y1011936D02*
X777494Y1002284D01*
X767842Y1011936D02*
Y1055878D01*
X509778Y1075182D02*
X526456D01*
X532638Y1069000D02*
X545401D01*
X545400Y1043000D02*
Y1050925D01*
X548575Y1054100D01*
X573278D01*
X578612Y1059434D01*
X796290Y945642D02*
Y1018540D01*
X437600Y1095000D02*
X466598D01*
X477128Y1084470D01*
X563220D01*
X564600Y1085850D01*
Y1095000D01*
X642620Y1003935D02*
X647192Y999363D01*
Y742696D02*
Y999363D01*
X640842Y736346D02*
X647192Y742696D01*
X576326Y736346D02*
X576600Y736072D01*
Y722000D02*
Y736072D01*
X606806Y915368D02*
Y984758D01*
Y915368D02*
X617553Y904621D01*
Y749729D02*
Y904621D01*
X616664Y748840D02*
X617553Y749729D01*
X616664Y635980D02*
Y748840D01*
X578600Y597916D02*
X616664Y635980D01*
X578600Y589000D02*
Y597916D01*
X545401Y1111250D02*
Y1121000D01*
Y1111250D02*
X545654Y1110996D01*
X586893D02*
X592857Y1116960D01*
X612269D01*
X615444Y1120135D01*
X493177Y991000D02*
X502721Y981456D01*
X564346D02*
X564600Y981710D01*
Y991000D01*
X503682Y998728D02*
X511410Y991000D01*
X545400D01*
X820900Y846000D02*
X835210Y860310D01*
Y965578D01*
X811530Y989258D02*
X835210Y965578D01*
X811530Y989258D02*
Y1094630D01*
X821900Y1105000D01*
X749500Y1058000D02*
X821900Y1130400D01*
X898100Y1054200D02*
X963800Y988500D01*
X564600Y835000D02*
X585149D01*
X589660Y692403D02*
Y816385D01*
X576600Y698000D02*
Y701417D01*
X585620Y710438D01*
Y799442D01*
X569976Y815086D02*
X585620Y799442D01*
X392073Y947015D02*
X400812Y938276D01*
X564600Y877570D02*
Y887000D01*
X564346Y877316D02*
X564600Y877570D01*
X536194Y877316D02*
X564346D01*
X526510Y887000D02*
X536194Y877316D01*
X437600Y887000D02*
X526510D01*
X392073Y947015D02*
Y984274D01*
X398799Y991000D01*
X418400D01*
X371921Y1061023D02*
X401066Y1090168D01*
X371921Y1037225D02*
Y1061023D01*
X355068Y1020372D02*
X371921Y1037225D01*
X355068Y985971D02*
Y1020372D01*
X353117Y984020D02*
X355068Y985971D01*
X353117Y760404D02*
Y984020D01*
Y760404D02*
X396940Y716581D01*
Y488860D02*
Y716581D01*
Y488860D02*
X451200Y434600D01*
X366649Y953897D02*
Y1018159D01*
X391490Y1043000D01*
X418400D01*
X602742Y595376D02*
Y606576D01*
X586486Y579120D02*
X602742Y595376D01*
X569722Y579120D02*
X586486D01*
X569468Y579374D02*
X569722Y579120D01*
X569468Y579374D02*
Y614746D01*
X569722Y615000D01*
X577600D01*
X523174D02*
X558400D01*
X502461Y635713D02*
X523174Y615000D01*
X482517Y635713D02*
X502461D01*
X472279Y625475D02*
X482517Y635713D01*
X444575Y625475D02*
X472279D01*
X441400Y622300D02*
X444575Y625475D01*
X459600Y566000D02*
X479894D01*
X486918Y573024D01*
Y626364D01*
X634500Y302938D02*
Y323850D01*
X628658Y329692D02*
X634500Y323850D01*
X505308Y329692D02*
X628658D01*
X451200Y383800D02*
X505308Y329692D01*
X273812Y506900D02*
X288000D01*
X273558Y506646D02*
X273812Y506900D01*
X273558Y422275D02*
Y506646D01*
Y422275D02*
X277241Y418592D01*
X301625D01*
X374523Y345694D01*
X413094D01*
X451200Y383800D01*
X751597Y304789D02*
Y441999D01*
Y304789D02*
X755650Y300736D01*
X782500D02*
Y300938D01*
X857283Y459500D02*
X908000D01*
X856004Y460780D02*
X857283Y459500D01*
X856004Y460780D02*
Y476424D01*
X868530Y488950D01*
Y515040D01*
X896490Y543000D01*
X878332Y494665D02*
X880497Y492500D01*
X1001373Y486537D02*
X1001500Y486410D01*
X1001337Y486537D02*
X1001373D01*
X1001210Y486410D02*
X1001337Y486537D01*
X1001210Y480764D02*
Y486410D01*
X1000506Y480060D02*
X1001210Y480764D01*
X991500Y480314D02*
X991754Y480060D01*
X737500Y285750D02*
Y300938D01*
Y285750D02*
X740675Y282575D01*
X809075D01*
X812250Y285750D01*
X1034796Y459000D02*
X1035296Y458500D01*
X1128407Y448007D02*
Y546215D01*
X1112012Y562610D02*
X1128407Y546215D01*
X1051052Y562610D02*
X1112012D01*
X1046988Y566674D02*
X1051052Y562610D01*
X1046988Y566674D02*
Y645746D01*
X1047242Y646000D01*
X1055750D01*
X929510Y510174D02*
Y543000D01*
Y510174D02*
X964184Y475500D01*
X564600Y835000D02*
Y844296D01*
X564346Y844550D02*
X564600Y844296D01*
X522224Y844550D02*
X564346D01*
X512674Y835000D02*
X522224Y844550D01*
X437600Y835000D02*
X512674D01*
X1129407Y301006D02*
Y313567D01*
X1115822Y327152D02*
X1129407Y313567D01*
X1093093Y405007D02*
X1104658D01*
X1071900Y383814D02*
X1093093Y405007D01*
X998250Y601240D02*
X1054490Y545000D01*
X998250Y601240D02*
Y610000D01*
X1144908Y448007D02*
Y550289D01*
X1125220Y569976D02*
X1144908Y550289D01*
X1060450Y569976D02*
X1125220D01*
X1056750Y573676D02*
X1060450Y569976D01*
X1056750Y573676D02*
Y593000D01*
X795750Y518000D02*
Y551656D01*
X808736Y564642D01*
Y603250D01*
X803986Y608000D02*
X808736Y603250D01*
X886714Y835614D02*
X897100Y846000D01*
X886714Y790321D02*
Y835614D01*
Y790321D02*
X892175Y784860D01*
X925576D01*
X929510Y780926D01*
Y543000D02*
Y780926D01*
X1207262Y390100D02*
X1211000D01*
X1145907Y317105D02*
X1207262Y378460D01*
X1145907Y301006D02*
Y317105D01*
X1059434Y394462D02*
X1068832Y403860D01*
X1059434Y358902D02*
Y394462D01*
X1021100Y320568D02*
X1059434Y358902D01*
X986500Y480822D02*
Y487000D01*
X980000Y480500D02*
X986178D01*
X458600Y530606D02*
Y540000D01*
X458346Y530352D02*
X458600Y530606D01*
X430276Y530352D02*
X458346D01*
X424434Y536194D02*
X430276Y530352D01*
X424434Y536194D02*
Y654558D01*
X741750Y1187750D02*
Y1187888D01*
X742476Y1188614D01*
X703000Y1190890D02*
X740200D01*
X1186200Y788700D02*
X1205000D01*
X1084100Y890800D02*
X1186200Y788700D01*
X996500Y445966D02*
Y459000D01*
Y445966D02*
X1039250Y403216D01*
Y393000D02*
Y403216D01*
X981250Y387000D02*
Y403516D01*
X991500Y413766D01*
Y459000D01*
X1094486Y470408D02*
X1116887Y448007D01*
X1128407D01*
X743802Y1058000D02*
X781880Y1096078D01*
Y1197288D01*
X751332Y1227836D02*
X781880Y1197288D01*
X630172Y1227836D02*
X751332D01*
X591566Y1189230D02*
X630172Y1227836D01*
X555752Y1189230D02*
X591566D01*
X555498Y1189484D02*
X555752Y1189230D01*
X555498Y1189484D02*
Y1198746D01*
X555244Y1199000D02*
X555498Y1198746D01*
X545401Y1199000D02*
X555244D01*
X564600Y1173000D02*
Y1180846D01*
X564346Y1181100D02*
X564600Y1180846D01*
X556366Y1181100D02*
X564346D01*
X551540Y1185926D02*
X556366Y1181100D01*
X441325Y1185926D02*
X551540D01*
X437600Y1182201D02*
X441325Y1185926D01*
X437600Y1173000D02*
Y1182201D01*
Y1199000D02*
X518026D01*
X531114Y1212088D01*
X559012D01*
X564600Y1206500D01*
Y1199000D02*
Y1206500D01*
Y1121000D02*
Y1130300D01*
X561461Y1133439D02*
X564600Y1130300D01*
X472522Y1133439D02*
X561461D01*
X460082Y1121000D02*
X472522Y1133439D01*
X437600Y1121000D02*
X460082D01*
X437600Y1147000D02*
X526674D01*
X536194Y1137480D01*
X554228D01*
X554482Y1137734D01*
Y1146746D01*
X554736Y1147000D01*
X564600D01*
X691642Y833882D02*
X788126D01*
X691388Y833628D02*
X691642Y833882D01*
X700600Y694000D02*
Y702750D01*
X681400Y762762D02*
Y772000D01*
Y762762D02*
X684595Y759567D01*
X681400Y746000D02*
X684595D01*
X437600Y913000D02*
X496240D01*
X505762Y903478D01*
X564346D01*
X564600Y903732D01*
Y913000D01*
X700600Y850000D02*
X799500D01*
X820900Y871400D01*
X445516Y706628D02*
Y736092D01*
Y706628D02*
X447548Y704596D01*
Y680430D02*
Y704596D01*
Y680430D02*
X458978Y669000D01*
X459600D01*
X390738Y1199000D02*
X418400D01*
X385294Y1204444D02*
X390738Y1199000D01*
X345924Y1204444D02*
X385294D01*
X321310Y1179830D02*
X345924Y1204444D01*
X321310Y1117310D02*
Y1179830D01*
X308400Y1104400D02*
X321310Y1117310D01*
X296672Y1090728D02*
X308400Y1079000D01*
X296672Y1090728D02*
Y1188339D01*
X301625Y1193292D01*
X318008D01*
X338582Y1213866D01*
X400346D01*
X411480Y1225000D01*
X418400D01*
X457600Y641000D02*
Y645814D01*
X479806Y668020D01*
X870250Y634475D02*
Y686000D01*
X866775Y631000D02*
X870250Y634475D01*
X812250Y517906D02*
Y518000D01*
X824484Y517906D02*
X859536Y552958D01*
X906018D01*
X906272Y552704D01*
X1055750Y646000D02*
Y792150D01*
X1007900Y840000D02*
X1055750Y792150D01*
X1145653Y290322D02*
X1145907Y290576D01*
Y301006D01*
X803986Y608000D02*
X848500D01*
X857250Y631000D02*
X861822Y626428D01*
Y577050D02*
Y626428D01*
X812250Y527478D02*
X861822Y577050D01*
X812250Y518000D02*
Y527478D01*
X1044018Y491500D02*
X1069000D01*
X908000Y459500D02*
X942182D01*
X948182Y465500D01*
X980000D01*
X1084100Y840000D02*
X1094486Y829614D01*
Y596900D02*
Y829614D01*
X1090586Y593000D02*
X1094486Y596900D01*
X1073250Y593000D02*
X1090586D01*
X637470Y560000D02*
X680400D01*
X631698Y554228D02*
X637470Y560000D01*
X556654Y554228D02*
X631698D01*
X556400Y554482D02*
X556654Y554228D01*
X556400Y554482D02*
Y564000D01*
X886714Y856386D02*
X897100Y846000D01*
X886714Y856386D02*
Y1093614D01*
X898100Y1105000D01*
X732397Y441999D02*
Y451612D01*
X732143Y451866D02*
X732397Y451612D01*
X673651Y451866D02*
X732143D01*
X673397Y451612D02*
X673651Y451866D01*
X673397Y441999D02*
Y451612D01*
X681400Y954000D02*
Y980000D01*
Y1006000D01*
Y1058000D02*
Y1084000D01*
Y1006000D02*
Y1032000D01*
Y1058000D01*
X288000Y379900D02*
Y405300D01*
X681400Y648882D02*
Y694000D01*
Y648882D02*
X699600Y630682D01*
Y586000D02*
Y630682D01*
X681400Y694000D02*
Y720000D01*
Y746000D01*
Y876000D02*
Y902000D01*
Y928000D02*
Y954000D01*
Y902000D02*
Y928000D01*
Y850000D02*
Y876000D01*
Y824000D02*
Y850000D01*
Y772000D02*
Y798000D01*
Y824000D01*
X288000Y329100D02*
Y354500D01*
X980000Y465500D02*
Y470500D01*
X740250Y1153000D02*
X743640D01*
X662360Y1191000D02*
X664250D01*
X1072250Y627132D02*
Y646000D01*
X1056750Y611632D02*
X1072250Y627132D01*
X1056750Y593000D02*
Y611632D01*
X986500Y487000D02*
X991500D01*
X1211000Y390100D02*
Y415500D01*
Y440900D01*
X1181349D02*
X1211000D01*
X1174242Y448007D02*
X1181349Y440900D01*
X1144908Y448007D02*
X1174242D01*
X1211000Y440900D02*
Y466300D01*
X1117600Y382006D02*
X1162658D01*
X557400Y670000D02*
Y698000D01*
Y722000D01*
Y656320D02*
Y670000D01*
Y656320D02*
X558400Y655320D01*
Y642000D02*
Y655320D01*
Y615000D02*
Y642000D01*
Y602472D02*
Y615000D01*
Y602472D02*
X559400Y601472D01*
Y589000D02*
Y601472D01*
Y577802D02*
Y589000D01*
X556400Y574802D02*
X559400Y577802D01*
X556400Y564000D02*
Y574802D01*
Y550910D02*
X557401Y549910D01*
Y537000D02*
Y549910D01*
X440400Y553450D02*
Y566000D01*
X439400Y552450D02*
X440400Y553450D01*
X439400Y540000D02*
Y552450D01*
X438400Y629364D02*
Y641000D01*
Y629364D02*
X441400Y626364D01*
X437400Y580850D02*
Y593000D01*
Y580850D02*
X440400Y577850D01*
Y566000D02*
Y577850D01*
X441400Y605980D02*
Y615000D01*
X437400Y601980D02*
X441400Y605980D01*
X437400Y593000D02*
Y601980D01*
X436400Y709390D02*
Y722000D01*
Y709390D02*
X438400Y707390D01*
Y695000D02*
Y707390D01*
Y682974D02*
Y695000D01*
Y682974D02*
X440400Y680974D01*
Y669000D02*
Y680974D01*
X992378Y487000D02*
Y493776D01*
X992353Y486855D02*
X992378Y487000D01*
X991500Y481838D02*
X992353Y486855D01*
X1001500Y459000D02*
X1034796D01*
X1008000Y465500D02*
X1015488D01*
X1033018Y480500D02*
X1044018Y491500D01*
X1015488Y465500D02*
X1020396Y470408D01*
X1094486D01*
X1012444Y470500D02*
X1017178Y475234D01*
X1094232D01*
X1008000Y480500D02*
X1033018D01*
X1008000Y470500D02*
Y475500D01*
Y470500D02*
X1012444D01*
X997602Y499000D02*
X1019000D01*
X992378Y493776D02*
X997602Y499000D01*
D27*
X741750Y1194250D02*
D03*
Y1187750D02*
D03*
X664250D02*
D03*
Y1194250D02*
D03*
D28*
X665750Y1150250D02*
D03*
Y1155750D02*
D03*
X740250Y1153000D02*
D03*
Y1150250D02*
D03*
D29*
X665750Y1153000D02*
D03*
X740250Y1155750D02*
D03*
D30*
X741750Y1191000D02*
D03*
X664250D02*
D03*
D31*
X587100Y293800D02*
D03*
Y319200D02*
D03*
Y344600D02*
D03*
Y370000D02*
D03*
Y395400D02*
D03*
Y420800D02*
D03*
Y446200D02*
D03*
X510900Y293800D02*
D03*
Y319200D02*
D03*
Y344600D02*
D03*
Y370000D02*
D03*
Y395400D02*
D03*
Y420800D02*
D03*
X897100Y769800D02*
D03*
Y795200D02*
D03*
Y820600D02*
D03*
Y846000D02*
D03*
Y871400D02*
D03*
Y896800D02*
D03*
Y922200D02*
D03*
X820900Y769800D02*
D03*
Y795200D02*
D03*
Y820600D02*
D03*
Y846000D02*
D03*
Y871400D02*
D03*
Y896800D02*
D03*
X1084100Y763800D02*
D03*
Y789200D02*
D03*
Y814600D02*
D03*
Y840000D02*
D03*
Y865400D02*
D03*
Y890800D02*
D03*
Y916200D02*
D03*
X1007900Y763800D02*
D03*
Y789200D02*
D03*
Y814600D02*
D03*
Y840000D02*
D03*
Y865400D02*
D03*
Y890800D02*
D03*
X898100Y1028800D02*
D03*
Y1054200D02*
D03*
Y1079600D02*
D03*
Y1105000D02*
D03*
Y1130400D02*
D03*
Y1155800D02*
D03*
Y1181200D02*
D03*
X821900Y1028800D02*
D03*
Y1054200D02*
D03*
Y1079600D02*
D03*
Y1105000D02*
D03*
Y1130400D02*
D03*
Y1155800D02*
D03*
X1083100Y1027800D02*
D03*
Y1053200D02*
D03*
Y1078600D02*
D03*
Y1104000D02*
D03*
Y1129400D02*
D03*
Y1154800D02*
D03*
Y1180200D02*
D03*
X1006900Y1027800D02*
D03*
Y1053200D02*
D03*
Y1078600D02*
D03*
Y1104000D02*
D03*
Y1129400D02*
D03*
Y1154800D02*
D03*
D32*
X510900Y446200D02*
D03*
X820900Y922200D02*
D03*
X1007900Y916200D02*
D03*
X821900Y1181200D02*
D03*
X1006900Y1180200D02*
D03*
D33*
X451200Y282200D02*
D03*
Y307600D02*
D03*
Y333000D02*
D03*
Y358400D02*
D03*
Y383800D02*
D03*
Y409200D02*
D03*
Y434600D02*
D03*
Y460000D02*
D03*
X375000Y282200D02*
D03*
Y307600D02*
D03*
Y333000D02*
D03*
Y358400D02*
D03*
Y383800D02*
D03*
Y409200D02*
D03*
Y434600D02*
D03*
D34*
Y460000D02*
D03*
D35*
X283000Y1206000D02*
D03*
Y850400D02*
D03*
D36*
Y1180600D02*
D03*
Y1155200D02*
D03*
Y1129800D02*
D03*
Y1104400D02*
D03*
Y1079000D02*
D03*
Y1053600D02*
D03*
Y1028200D02*
D03*
Y1002800D02*
D03*
Y977400D02*
D03*
X308400Y1206000D02*
D03*
Y1180600D02*
D03*
Y1155200D02*
D03*
Y1129800D02*
D03*
Y1104400D02*
D03*
Y1079000D02*
D03*
Y1053600D02*
D03*
Y1028200D02*
D03*
Y1002800D02*
D03*
Y977400D02*
D03*
X283000Y825000D02*
D03*
Y799600D02*
D03*
Y774200D02*
D03*
Y748800D02*
D03*
Y723400D02*
D03*
Y698000D02*
D03*
Y672600D02*
D03*
Y647200D02*
D03*
Y621800D02*
D03*
X308400Y850400D02*
D03*
Y825000D02*
D03*
Y799600D02*
D03*
Y774200D02*
D03*
Y748800D02*
D03*
Y723400D02*
D03*
Y698000D02*
D03*
Y672600D02*
D03*
Y647200D02*
D03*
Y621800D02*
D03*
D37*
X894100Y286000D02*
D03*
X919500D02*
D03*
X944900D02*
D03*
X970300D02*
D03*
X995700D02*
D03*
X1021100D02*
D03*
X1046500D02*
D03*
D38*
X1071900D02*
D03*
D39*
X1202000Y1140900D02*
D03*
Y1115500D02*
D03*
Y1090100D02*
D03*
Y1064700D02*
D03*
Y1039300D02*
D03*
Y1013900D02*
D03*
Y988500D02*
D03*
X1211000Y567900D02*
D03*
Y542500D02*
D03*
Y517100D02*
D03*
Y491700D02*
D03*
Y466300D02*
D03*
Y440900D02*
D03*
Y415500D02*
D03*
X288000Y329100D02*
D03*
Y354500D02*
D03*
Y379900D02*
D03*
Y405300D02*
D03*
Y430700D02*
D03*
Y456100D02*
D03*
Y481500D02*
D03*
X1205000Y864900D02*
D03*
Y839500D02*
D03*
Y814100D02*
D03*
Y788700D02*
D03*
Y763300D02*
D03*
Y737900D02*
D03*
Y712500D02*
D03*
D40*
X1202000Y963100D02*
D03*
X1211000Y390100D02*
D03*
X288000Y506900D02*
D03*
X1205000Y687100D02*
D03*
D41*
X282630Y948000D02*
D03*
X834644Y507492D02*
D03*
X672338Y617728D02*
D03*
X269494Y288290D02*
D03*
X361950Y1042416D02*
D03*
X351536Y527812D02*
D03*
X337312Y1025906D02*
D03*
X710184Y635497D02*
D03*
X366522Y779828D02*
D03*
X401193Y1022858D02*
D03*
X567206Y789916D02*
D03*
X400177Y1003554D02*
D03*
X618236D02*
D03*
X405130Y976376D02*
D03*
X462026Y1026922D02*
D03*
X406146Y625348D02*
D03*
X476250Y615950D02*
D03*
X385096Y1147000D02*
D03*
X345948Y684748D02*
D03*
Y989965D02*
D03*
X387652Y1013968D02*
D03*
X506222Y615696D02*
D03*
X263652Y1243584D02*
D03*
X376174Y1195324D02*
D03*
X455676Y750316D02*
D03*
X584454Y866648D02*
D03*
X545400Y771120D02*
D03*
X600202Y877824D02*
D03*
X690626Y678942D02*
D03*
X601218Y706374D02*
D03*
X581311Y887000D02*
D03*
X865980Y953803D02*
D03*
X604393Y762000D02*
D03*
X1065022Y722376D02*
D03*
X587502Y906780D02*
D03*
X907542Y959358D02*
D03*
X779526Y780034D02*
D03*
X844550Y789269D02*
D03*
X804418Y881888D02*
D03*
X518774Y913000D02*
D03*
X633476Y758444D02*
D03*
X973225Y956794D02*
D03*
X510546Y954834D02*
D03*
X661162Y760603D02*
D03*
X779526Y812292D02*
D03*
X531368Y979170D02*
D03*
X805434Y980059D02*
D03*
X519430Y1000125D02*
D03*
X980059Y973074D02*
D03*
X604472Y1106424D02*
D03*
X1066220Y1112520D02*
D03*
X509778Y1075182D02*
D03*
X662432Y941070D02*
D03*
X1083056Y941578D02*
D03*
X766278Y999086D02*
D03*
X496086Y1095000D02*
D03*
X736322Y1020596D02*
D03*
X591058Y1093216D02*
D03*
X685038Y1098804D02*
D03*
X450850Y1135126D02*
D03*
X641350Y1212850D02*
D03*
X1017270Y1220724D02*
D03*
X772668Y1150366D02*
D03*
X835533Y980440D02*
D03*
X727202Y968514D02*
D03*
X726694Y994664D02*
D03*
X453136Y1167130D02*
D03*
X548640Y1239012D02*
D03*
X902622Y1233678D02*
D03*
X992124Y521462D02*
D03*
X851964Y496824D02*
D03*
X1025117Y963100D02*
D03*
X1036320Y1082620D02*
D03*
X1029482Y342646D02*
D03*
X865124Y469900D02*
D03*
X796290Y334010D02*
D03*
X801878Y293116D02*
D03*
X538861Y392938D02*
D03*
X921004Y334897D02*
D03*
X404368Y952754D02*
D03*
X518922Y1056005D02*
D03*
X378460Y851662D02*
D03*
X855980Y896800D02*
D03*
X866140Y780034D02*
D03*
X564600Y1243838D02*
D03*
X703775Y1098364D02*
D03*
X661416Y786130D02*
D03*
X505206Y1039876D02*
D03*
X782574Y1011428D02*
D03*
X583716Y1034796D02*
D03*
X767842Y1055878D02*
D03*
X578612Y1059434D02*
D03*
X796290Y1018540D02*
D03*
X642620Y1003935D02*
D03*
X640842Y736346D02*
D03*
X576326D02*
D03*
X606806Y984758D02*
D03*
X615444Y1120135D02*
D03*
X503682Y998728D02*
D03*
X963800Y988500D02*
D03*
X585149Y835000D02*
D03*
X589660Y816385D02*
D03*
X569976Y815086D02*
D03*
X400812Y938276D02*
D03*
X401066Y1090168D02*
D03*
X366649Y953897D02*
D03*
X602742Y606576D02*
D03*
X486918Y626364D02*
D03*
X878332Y494665D02*
D03*
X1115822Y327152D02*
D03*
X424434Y654558D02*
D03*
X788126Y833882D02*
D03*
X445516Y736092D02*
D03*
X479806Y668020D02*
D03*
X1019000Y499000D02*
D03*
M02*
