G04 Layer_Color=8150272*
%FSLAX44Y44*%
%MOMM*%
G71*
G01*
G75*
%ADD66C,0.2032*%
%ADD67C,1.7032*%
%ADD68R,1.7032X1.7032*%
%ADD69C,1.5032*%
%ADD70R,1.5032X1.5032*%
%ADD71P,2.1444X8X22.5*%
%ADD72C,1.9812*%
%ADD73O,1.7532X2.4892*%
%ADD74R,1.7532X2.4892*%
%ADD75O,2.4892X1.7532*%
%ADD76R,2.4892X1.7532*%
%ADD77C,1.4732*%
D66*
X678000Y1163500D02*
D03*
X728400D02*
D03*
D67*
X587100Y293800D02*
D03*
Y319200D02*
D03*
Y344600D02*
D03*
Y370000D02*
D03*
Y395400D02*
D03*
Y420800D02*
D03*
Y446200D02*
D03*
X510900Y293800D02*
D03*
Y319200D02*
D03*
Y344600D02*
D03*
Y370000D02*
D03*
Y395400D02*
D03*
Y420800D02*
D03*
X897100Y769800D02*
D03*
Y795200D02*
D03*
Y820600D02*
D03*
Y846000D02*
D03*
Y871400D02*
D03*
Y896800D02*
D03*
Y922200D02*
D03*
X820900Y769800D02*
D03*
Y795200D02*
D03*
Y820600D02*
D03*
Y846000D02*
D03*
Y871400D02*
D03*
Y896800D02*
D03*
X1084100Y763800D02*
D03*
Y789200D02*
D03*
Y814600D02*
D03*
Y840000D02*
D03*
Y865400D02*
D03*
Y890800D02*
D03*
Y916200D02*
D03*
X1007900Y763800D02*
D03*
Y789200D02*
D03*
Y814600D02*
D03*
Y840000D02*
D03*
Y865400D02*
D03*
Y890800D02*
D03*
X898100Y1028800D02*
D03*
Y1054200D02*
D03*
Y1079600D02*
D03*
Y1105000D02*
D03*
Y1130400D02*
D03*
Y1155800D02*
D03*
Y1181200D02*
D03*
X821900Y1028800D02*
D03*
Y1054200D02*
D03*
Y1079600D02*
D03*
Y1105000D02*
D03*
Y1130400D02*
D03*
Y1155800D02*
D03*
X1083100Y1027800D02*
D03*
Y1053200D02*
D03*
Y1078600D02*
D03*
Y1104000D02*
D03*
Y1129400D02*
D03*
Y1154800D02*
D03*
Y1180200D02*
D03*
X1006900Y1027800D02*
D03*
Y1053200D02*
D03*
Y1078600D02*
D03*
Y1104000D02*
D03*
Y1129400D02*
D03*
Y1154800D02*
D03*
D68*
X510900Y446200D02*
D03*
X820900Y922200D02*
D03*
X1007900Y916200D02*
D03*
X821900Y1181200D02*
D03*
X1006900Y1180200D02*
D03*
D69*
X451200Y282200D02*
D03*
Y307600D02*
D03*
Y333000D02*
D03*
Y358400D02*
D03*
Y383800D02*
D03*
Y409200D02*
D03*
Y434600D02*
D03*
Y460000D02*
D03*
X375000Y282200D02*
D03*
Y307600D02*
D03*
Y333000D02*
D03*
Y358400D02*
D03*
Y383800D02*
D03*
Y409200D02*
D03*
Y434600D02*
D03*
D70*
Y460000D02*
D03*
D71*
X283000Y1206000D02*
D03*
Y850400D02*
D03*
D72*
Y1180600D02*
D03*
Y1155200D02*
D03*
Y1129800D02*
D03*
Y1104400D02*
D03*
Y1079000D02*
D03*
Y1053600D02*
D03*
Y1028200D02*
D03*
Y1002800D02*
D03*
Y977400D02*
D03*
X308400Y1206000D02*
D03*
Y1180600D02*
D03*
Y1155200D02*
D03*
Y1129800D02*
D03*
Y1104400D02*
D03*
Y1079000D02*
D03*
Y1053600D02*
D03*
Y1028200D02*
D03*
Y1002800D02*
D03*
Y977400D02*
D03*
X283000Y825000D02*
D03*
Y799600D02*
D03*
Y774200D02*
D03*
Y748800D02*
D03*
Y723400D02*
D03*
Y698000D02*
D03*
Y672600D02*
D03*
Y647200D02*
D03*
Y621800D02*
D03*
X308400Y850400D02*
D03*
Y825000D02*
D03*
Y799600D02*
D03*
Y774200D02*
D03*
Y748800D02*
D03*
Y723400D02*
D03*
Y698000D02*
D03*
Y672600D02*
D03*
Y647200D02*
D03*
Y621800D02*
D03*
D73*
X894100Y286000D02*
D03*
X919500D02*
D03*
X944900D02*
D03*
X970300D02*
D03*
X995700D02*
D03*
X1021100D02*
D03*
X1046500D02*
D03*
D74*
X1071900D02*
D03*
D75*
X1202000Y1140900D02*
D03*
Y1115500D02*
D03*
Y1090100D02*
D03*
Y1064700D02*
D03*
Y1039300D02*
D03*
Y1013900D02*
D03*
Y988500D02*
D03*
X1211000Y567900D02*
D03*
Y542500D02*
D03*
Y517100D02*
D03*
Y491700D02*
D03*
Y466300D02*
D03*
Y440900D02*
D03*
Y415500D02*
D03*
X288000Y329100D02*
D03*
Y354500D02*
D03*
Y379900D02*
D03*
Y405300D02*
D03*
Y430700D02*
D03*
Y456100D02*
D03*
Y481500D02*
D03*
X1205000Y864900D02*
D03*
Y839500D02*
D03*
Y814100D02*
D03*
Y788700D02*
D03*
Y763300D02*
D03*
Y737900D02*
D03*
Y712500D02*
D03*
D76*
X1202000Y963100D02*
D03*
X1211000Y390100D02*
D03*
X288000Y506900D02*
D03*
X1205000Y687100D02*
D03*
D77*
X282630Y948000D02*
D03*
X834644Y507492D02*
D03*
X672338Y617728D02*
D03*
X269494Y288290D02*
D03*
X361950Y1042416D02*
D03*
X351536Y527812D02*
D03*
X337312Y1025906D02*
D03*
X710184Y635497D02*
D03*
X366522Y779828D02*
D03*
X401193Y1022858D02*
D03*
X567206Y789916D02*
D03*
X400177Y1003554D02*
D03*
X618236D02*
D03*
X405130Y976376D02*
D03*
X462026Y1026922D02*
D03*
X406146Y625348D02*
D03*
X476250Y615950D02*
D03*
X385096Y1147000D02*
D03*
X345948Y684748D02*
D03*
Y989965D02*
D03*
X387652Y1013968D02*
D03*
X506222Y615696D02*
D03*
X263652Y1243584D02*
D03*
X376174Y1195324D02*
D03*
X455676Y750316D02*
D03*
X584454Y866648D02*
D03*
X545400Y771120D02*
D03*
X600202Y877824D02*
D03*
X690626Y678942D02*
D03*
X601218Y706374D02*
D03*
X581311Y887000D02*
D03*
X865980Y953803D02*
D03*
X604393Y762000D02*
D03*
X1065022Y722376D02*
D03*
X587502Y906780D02*
D03*
X907542Y959358D02*
D03*
X779526Y780034D02*
D03*
X844550Y789269D02*
D03*
X804418Y881888D02*
D03*
X518774Y913000D02*
D03*
X633476Y758444D02*
D03*
X973225Y956794D02*
D03*
X510546Y954834D02*
D03*
X661162Y760603D02*
D03*
X779526Y812292D02*
D03*
X531368Y979170D02*
D03*
X805434Y980059D02*
D03*
X519430Y1000125D02*
D03*
X980059Y973074D02*
D03*
X604472Y1106424D02*
D03*
X1066220Y1112520D02*
D03*
X509778Y1075182D02*
D03*
X662432Y941070D02*
D03*
X1083056Y941578D02*
D03*
X766278Y999086D02*
D03*
X496086Y1095000D02*
D03*
X736322Y1020596D02*
D03*
X591058Y1093216D02*
D03*
X685038Y1098804D02*
D03*
X450850Y1135126D02*
D03*
X641350Y1212850D02*
D03*
X1017270Y1220724D02*
D03*
X772668Y1150366D02*
D03*
X835533Y980440D02*
D03*
X727202Y968514D02*
D03*
X726694Y994664D02*
D03*
X453136Y1167130D02*
D03*
X548640Y1239012D02*
D03*
X902622Y1233678D02*
D03*
X992124Y521462D02*
D03*
X851964Y496824D02*
D03*
X1025117Y963100D02*
D03*
X1036320Y1082620D02*
D03*
X1029482Y342646D02*
D03*
X865124Y469900D02*
D03*
X796290Y334010D02*
D03*
X801878Y293116D02*
D03*
X538861Y392938D02*
D03*
X921004Y334897D02*
D03*
X404368Y952754D02*
D03*
X518922Y1056005D02*
D03*
X378460Y851662D02*
D03*
X855980Y896800D02*
D03*
X866140Y780034D02*
D03*
X564600Y1243838D02*
D03*
X703775Y1098364D02*
D03*
X661416Y786130D02*
D03*
X505206Y1039876D02*
D03*
X782574Y1011428D02*
D03*
X583716Y1034796D02*
D03*
X767842Y1055878D02*
D03*
X578612Y1059434D02*
D03*
X796290Y1018540D02*
D03*
X642620Y1003935D02*
D03*
X640842Y736346D02*
D03*
X576326D02*
D03*
X606806Y984758D02*
D03*
X615444Y1120135D02*
D03*
X503682Y998728D02*
D03*
X963800Y988500D02*
D03*
X585149Y835000D02*
D03*
X589660Y816385D02*
D03*
X569976Y815086D02*
D03*
X400812Y938276D02*
D03*
X401066Y1090168D02*
D03*
X366649Y953897D02*
D03*
X602742Y606576D02*
D03*
X486918Y626364D02*
D03*
X878332Y494665D02*
D03*
X1115822Y327152D02*
D03*
X424434Y654558D02*
D03*
X788126Y833882D02*
D03*
X445516Y736092D02*
D03*
X479806Y668020D02*
D03*
X1019000Y499000D02*
D03*
M02*
